<?xml version="1.0" encoding="utf-8"?>
<!-- Generator: Adobe Illustrator 18.0.0, SVG Export Plug-In . SVG Version: 6.00 Build 0)  -->
<!DOCTYPE svg PUBLIC "-//W3C//DTD SVG 1.1//EN" "http://www.w3.org/Graphics/SVG/1.1/DTD/svg11.dtd">
<svg version="1.1" id="Layer_1" xmlns="http://www.w3.org/2000/svg" xmlns:xlink="http://www.w3.org/1999/xlink" x="0px" y="0px"
	 viewBox="0 0 441.2 631" enable-background="new 0 0 441.2 631" xml:space="preserve">
<rect x="2.8" y="0.5" fill="#DEEFDE" width="438.6" height="631"/>
<path fill="#FFFFF7" d="M306.3,129.3c-2.9-15.5-24.6-52.6-24.6-52.6L360,52.1c0,0,4.3,19.9,15.9,28c5.5,3.5,21.4,6.9,21.4,6.9
	s10.5-12.6,15.4-14.5c1.1-0.4,3.5-0.3,4.5,0.1c2.2,0.7,6.9,4.2,9,5.8c0.6,0.5,1,1.3,1,2.1v4.7c0,0.8,0.4,1.6,1,2.1l6.4,5.4
	c0.8,0.7,1.3,1.8,1.3,2.9v29.4c0,0.8-0.3,1.5-0.9,2l-23.4,20.4l0.4,17.2l-36.7,15.9l10.4,23.2L361,214.8l3.5,7.8l-1.3,3.8l37.1,81.2
	l18.1,1.3l14.2,26.3l-0.2,3.1L390.7,392l50.5,25.6V460l-122.9-57.6c0,0-12.9-11.2-39.4-6.9c-6.1,5.4-22.4,23.4-22.4,23.4l-35.8,53.5
	c0,0-2.9,6.5-19.2,10.2s-69.2,16.6-69.2,16.6s-8.1,3.5-33.5-18c-3.5-5.2-50-23.8-50-23.8l-9.9-48.2c0,0-7.8-28.8,12-49
	C62.2,343.8,62.8,338,62.8,338s3-7.4,14-4.5s16.8,1.9,21.2-6.5s31-52.2,33.5-62.8c5.4-7.4,53.6-34.1,53.6-34.1s14.4-17.6,35.8-3.1
	c8.9,8.2,14,28.7,18.4,36.1c2.1,3.5,7.4,10.4,11.2,11.8c2.9,1,11-1.5,12.3-2.4s34.2-15.2,36.2-17.4s5.9-20.9,21.8-22.8l35.1-11.4
	l-18.5-38.2L318,138.2c-0.4-0.8-1-1.5-1.9-1.9C313.2,135.1,306.7,129,306.3,129.3"/>
<path fill="#FFF7DE" d="M346.7,83.2l2.3-1.1l16.2,32.8l-24.4,13.7l-20.2,10.9v4.5l32.2,75.5l10.4-4.6l-10.2-23.6
	c0,0-2.8-4.9,5.9-10.4c8.7-5.5,9.1-5.6,7-13l-17-34.7l19.7-10.4l7.2,14.6l22.5-12.1l11.6-18.6l5.2-3.3l7.1,5.5l3.6,1.8l9.1-6.1
	l-15.8-18.7l-10.2-6.9L397.6,87l-25.3-8.3c0,0-13.5-18.2-13.7-19.7c0.1,0.2-12.9,6.1-17.7,8.4c-1,0.5-1.4,1.6-0.9,2.6L346.7,83.2z"
	/>
<g>
	<path fill="#FFF7DE" d="M441.2,417.5l-53.9-26.2c0,0,29.4-50.2,39.5-54.5c0,0.3-12.5-22.8-12.5-22.8h-9.4l-5.9-2.2l-9.5-17.6
		l-8.4,5l-3.3,3.7l-3.8,2.5l-6.1,8.7c0,0,1.2,3.1,10.4,4.9c9.2,1.8,9.1,12.9,9.1,12.9l-9.7,53.4l-61.6-31.1l-57.3,4.8
		c0,0,5.1-7.6,15.4-8c0,0,18.3,2.7,26.3,0.9s23.6-18.9,7.4-36.7c-8.8-10.5-16.7-16-16.7-16l0.1-3.2l46.1-1.4c0,0,10.2-2.4,28.6,17.6
		l6.3-9.4l16.2-11.3L359,225.6c0,0-43.4,11.8-48.7,20.7c-0.7,3.2-6.3,14.6-13.8,16l-37.8,15.7l-27.1,0.8c0,0,0.2-11.4-3.3-14.6
		l-18.3,9.3l-46.9-13.7c0,0-4-6.3-8.7,0s-15.7,10.3-23.4,22s-22.2,40.3-22.2,40.3s-8.6,10.9-19.9,13.7
		c-11.4,2.8-28.7,15.6-31.1,23.3c0.1,0.3-8.9,16.7-8.9,16.7l-5.7,23.3c0,0-1.5,10.1,7.6,11s25.2,0.5,32.4-9
		c7.2-9.6,21.5-34.2,44.5-26.4c0,0.1-3.7,15.6-3.7,15.6l-9,7.6l5,7.5c0,0,20-17.3,27.8-15.4s8.6,12.5,5.3,21.9
		c-4.6,8.8-17,21.5-13.8,26.4s10.5,8.2,10.5,8.2s2.4,1.2,5.5,0s3.7-1.7,7.9,0.5c2,1.9,41.3,26,41.3,26s11,2.2,15.5-10.2
		c0-0.1,41-60.6,41-60.6s3.1-7.8,18.5-6.7c0.2-0.1,21.1-2.8,40.5,7.7c19.3,10.5,121.4,56.7,121.4,56.7V417.5z"/>
	<path fill="#FFFFF7" d="M284.7,296.5c0,0-35.5-3-43.8,12.7c-8.3,15.6-10.1,23.8-10.1,23.8s4,19.7,14.3,26.8l5.1-0.8
		c0,0,1.9-15.5,7.6-19.7c4.1-4.1,8.8-10,7.1-18.6c1.1-9.6,2-13,18.6-18C287.5,299,284.7,296.5,284.7,296.5z"/>
</g>
<path fill="#DEEFDE" d="M375.4,384.1l-60.4-30.3l26.9-34.4l36.3,2c0,0,6.3,2.3,4.9,12.9C381.7,344.9,375.4,384.1,375.4,384.1z"/>
<polygon fill="#8CC7BD" points="380.2,145.1 360.2,155.8 349.1,133 368.8,122.6 "/>
<polygon fill="#8CC7BD" points="365.3,114.8 345.3,126 328.3,93.2 349.1,82.8 "/>
<path fill="#D6D3CE" d="M364.6,222.1l-3,8.3l-9.7-3l3.7-7.2l-33.8-81l46.1-23.7l2.7,5.1l-23.7,12.2c-1.2,0.7-1.8,2.2-1.2,3.5
	l12.6,28.1c0,0,6,12.8-9.8,19.9L364.6,222.1z"/>
<path fill="#FFF7DE" d="M341.1,135.7l-12.8,6.6l17.1,38.5l7.8-5.4c1.7-2.3,2.1-5.3,1-7.9L341.1,135.7z"/>
<path fill="#FFFFF7" d="M55.8,363c0,0,12.7,8.3,13.7,8.7c1,0.4,8.3,3.6,9.6,4.9c1.3,1.3,13.9,0.3,19.7,5.4l-2.1,2
	c0,0-6.2-3.8-15.7-4.2c-6.6-1.1-9.2-4.4-9.2-4.4s-15.4-6.9-17.4-9.7L55.8,363z"/>
<g>
	<path fill="#8CC7BD" d="M57.7,461.2c1.1-0.9,1.8-2.2,1.8-3.8c0-2.7-2.2-4.9-4.9-4.9c-1.4,0-2.7,0.6-3.5,1.5c-0.3-2-2.1-3.6-4.2-3.6
		c-2.2,0-4,1.7-4.2,3.9c-0.1,0-0.1,0-0.2,0c0-0.1,0-0.1,0-0.2c0-2.3-1.8-4.1-4.1-4.1s-4.1,1.8-4.1,4.1c0,0.5,0.1,0.9,0.2,1.4
		c-0.3-0.1-0.6-0.1-1-0.1c-2,0-3.7,1.7-3.7,3.7c0,1.6,1,2.9,2.4,3.5c-0.9,0.5-1.5,1.4-1.5,2.5c0,1.2,0.7,2.1,1.7,2.6
		c-0.9,0.8-1.4,1.9-1.4,3.2c0,2.4,1.9,4.3,4.3,4.3c0.9,0,1.8-0.3,2.5-0.8c0,0.2,0,0.3,0,0.5c0,2.8,2.2,5,5,5c2.2,0,4-1.4,4.7-3.4
		c0.8,1,2.1,1.6,3.5,1.6c2.5,0,4.6-2.1,4.6-4.6c0-0.9-0.2-1.7-0.6-2.3c0.7,0.3,1.4,0.5,2.2,0.5c2.9,0,5.3-2.4,5.3-5.3
		C62.3,463.7,60.3,461.5,57.7,461.2z"/>
</g>
<g>
	<path fill="#8CC7BD" d="M93.3,473.7c1.1-0.9,1.8-2.2,1.8-3.8c0-2.7-2.2-4.9-4.9-4.9c-1.4,0-2.7,0.6-3.5,1.5c-0.3-2-2.1-3.6-4.2-3.6
		c-2.2,0-4,1.7-4.2,3.9c-0.1,0-0.1,0-0.2,0c0-0.1,0-0.1,0-0.2c0-2.3-1.8-4.1-4.1-4.1s-4.1,1.8-4.1,4.1c0,0.5,0.1,0.9,0.2,1.4
		c-0.3-0.1-0.6-0.1-1-0.1c-2,0-3.7,1.7-3.7,3.7c0,1.6,1,2.9,2.4,3.5c-0.9,0.5-1.5,1.4-1.5,2.5c0,1.2,0.7,2.1,1.7,2.6
		c-0.9,0.8-1.4,1.9-1.4,3.2c0,2.4,1.9,4.3,4.3,4.3c0.9,0,1.8-0.3,2.5-0.8c0,0.2,0,0.3,0,0.5c0,2.8,2.2,5,5,5c2.2,0,4-1.4,4.7-3.4
		c0.8,1,2.1,1.6,3.5,1.6c2.5,0,4.6-2.1,4.6-4.6c0-0.9-0.2-1.7-0.6-2.3c0.7,0.3,1.4,0.5,2.2,0.5c2.9,0,5.3-2.4,5.3-5.3
		C98,476.2,95.9,474,93.3,473.7z"/>
</g>
<g>
	<path fill="#8CC7BD" d="M159.7,496.6c1.1-0.9,1.8-2.2,1.8-3.8c0-2.7-2.2-4.9-4.9-4.9c-1.4,0-2.7,0.6-3.5,1.5
		c-0.3-2-2.1-3.6-4.2-3.6c-2.2,0-4,1.7-4.2,3.9c-0.1,0-0.1,0-0.2,0c0-0.1,0-0.1,0-0.2c0-2.3-1.8-4.1-4.1-4.1s-4.1,1.8-4.1,4.1
		c0,0.5,0.1,0.9,0.2,1.4c-0.3-0.1-0.6-0.1-1-0.1c-2,0-3.7,1.7-3.7,3.7c0,1.6,1,2.9,2.4,3.5c-0.9,0.5-1.5,1.4-1.5,2.5
		c0,1.2,0.7,2.1,1.7,2.6c-0.9,0.8-1.4,1.9-1.4,3.2c0,2.4,1.9,4.3,4.3,4.3c0.9,0,1.8-0.3,2.5-0.8c0,0.2,0,0.3,0,0.5c0,2.8,2.2,5,5,5
		c2.2,0,4-1.4,4.7-3.4c0.8,1,2.1,1.6,3.5,1.6c2.5,0,4.6-2.1,4.6-4.6c0-0.9-0.2-1.7-0.6-2.3c0.7,0.3,1.4,0.5,2.2,0.5
		c2.9,0,5.3-2.4,5.3-5.3C164.4,499.1,162.3,496.9,159.7,496.6z"/>
</g>
<g>
	<path fill="#8CC7BD" d="M287.6,416.5c1.1-0.9,1.8-2.2,1.8-3.7c0-2.7-2.2-4.8-4.8-4.8c-1.4,0-2.6,0.6-3.5,1.5c-0.3-2-2-3.5-4.1-3.5
		c-2.2,0-4,1.7-4.2,3.8c-0.1,0-0.1,0-0.2,0c0-0.1,0-0.1,0-0.2c0-2.2-1.8-4.1-4.1-4.1s-4.1,1.8-4.1,4.1c0,0.5,0.1,0.9,0.2,1.3
		c-0.3-0.1-0.6-0.1-1-0.1c-2,0-3.7,1.6-3.7,3.7c0,1.6,1,2.9,2.4,3.4c-0.9,0.5-1.5,1.4-1.5,2.5c0,1.1,0.7,2.1,1.7,2.6
		c-0.9,0.8-1.4,1.9-1.4,3.2c0,2.4,1.9,4.3,4.3,4.3c0.9,0,1.7-0.3,2.4-0.8c0,0.2,0,0.3,0,0.5c0,2.7,2.2,5,5,5c2.2,0,4-1.4,4.7-3.3
		c0.8,1,2.1,1.6,3.4,1.6c2.5,0,4.6-2,4.6-4.6c0-0.8-0.2-1.6-0.6-2.3c0.7,0.3,1.4,0.5,2.2,0.5c2.9,0,5.2-2.3,5.2-5.2
		C292.2,419,290.2,416.7,287.6,416.5z"/>
</g>
<g>
	<path fill="#8CC7BD" d="M299,241.8c1.1-0.9,1.8-2.3,1.8-3.8c0-2.7-2.2-4.9-4.9-4.9c-1.4,0-2.7,0.6-3.6,1.5c-0.3-2-2.1-3.6-4.2-3.6
		c-2.2,0-4.1,1.7-4.2,3.9c-0.1,0-0.1,0-0.2,0c0-0.1,0-0.1,0-0.2c0-2.3-1.9-4.1-4.1-4.1c-2.3,0-4.1,1.9-4.1,4.1
		c0,0.5,0.1,0.9,0.2,1.4c-0.3-0.1-0.7-0.1-1-0.1c-2.1,0-3.7,1.7-3.7,3.7c0,1.6,1,3,2.4,3.5c-0.9,0.5-1.5,1.4-1.5,2.5
		c0,1.2,0.7,2.2,1.7,2.6c-0.9,0.8-1.4,1.9-1.4,3.2c0,2.4,1.9,4.3,4.3,4.3c0.9,0,1.8-0.3,2.5-0.8c0,0.2,0,0.3,0,0.5c0,2.8,2.3,5,5,5
		c2.2,0,4.1-1.4,4.7-3.4c0.8,1,2.1,1.6,3.5,1.6c2.6,0,4.6-2.1,4.6-4.6c0-0.9-0.2-1.7-0.6-2.4c0.7,0.3,1.4,0.5,2.2,0.5
		c2.9,0,5.3-2.4,5.3-5.3C303.7,244.3,301.6,242.1,299,241.8z"/>
</g>
<g>
	<path fill="#8CC7BD" d="M176.6,200.2c1.1-0.9,1.8-2.3,1.8-3.8c0-2.7-2.2-4.9-4.9-4.9c-1.4,0-2.7,0.6-3.6,1.5
		c-0.3-2-2.1-3.6-4.2-3.6c-2.2,0-4.1,1.7-4.2,3.9c-0.1,0-0.1,0-0.2,0c0-0.1,0-0.1,0-0.2c0-2.3-1.9-4.1-4.1-4.1
		c-2.3,0-4.1,1.9-4.1,4.1c0,0.5,0.1,0.9,0.2,1.4c-0.3-0.1-0.7-0.1-1-0.1c-2.1,0-3.7,1.7-3.7,3.7c0,1.6,1,3,2.4,3.5
		c-0.9,0.5-1.5,1.4-1.5,2.5c0,1.2,0.7,2.2,1.7,2.6c-0.9,0.8-1.4,1.9-1.4,3.2c0,2.4,1.9,4.3,4.3,4.3c0.9,0,1.8-0.3,2.5-0.8
		c0,0.2,0,0.3,0,0.5c0,2.8,2.3,5,5,5c2.2,0,4.1-1.4,4.7-3.4c0.8,1,2.1,1.6,3.5,1.6c2.6,0,4.6-2.1,4.6-4.6c0-0.9-0.2-1.7-0.6-2.4
		c0.7,0.3,1.4,0.5,2.2,0.5c2.9,0,5.3-2.4,5.3-5.3C181.3,202.8,179.2,200.5,176.6,200.2z"/>
</g>
<g>
	<path fill="#8CC7BD" d="M138.7,245.6c1.1-0.9,1.8-2.3,1.8-3.8c0-2.7-2.2-4.9-4.9-4.9c-1.4,0-2.7,0.6-3.6,1.5
		c-0.3-2-2.1-3.6-4.2-3.6c-2.2,0-4.1,1.7-4.2,3.9c-0.1,0-0.1,0-0.2,0c0-0.1,0-0.1,0-0.2c0-2.3-1.9-4.1-4.1-4.1s-4.1,1.9-4.1,4.1
		c0,0.5,0.1,0.9,0.2,1.4c-0.3-0.1-0.7-0.1-1-0.1c-2.1,0-3.7,1.7-3.7,3.7c0,1.6,1,3,2.4,3.5c-0.9,0.5-1.5,1.4-1.5,2.5
		c0,1.2,0.7,2.2,1.7,2.6c-0.9,0.8-1.4,1.9-1.4,3.2c0,2.4,1.9,4.3,4.3,4.3c0.9,0,1.8-0.3,2.5-0.8c0,0.2,0,0.3,0,0.5c0,2.8,2.3,5,5,5
		c2.2,0,4.1-1.4,4.7-3.4c0.8,1,2.1,1.6,3.5,1.6c2.6,0,4.6-2.1,4.6-4.6c0-0.9-0.2-1.7-0.6-2.4c0.7,0.3,1.4,0.5,2.2,0.5
		c2.9,0,5.3-2.4,5.3-5.3C143.4,248.1,141.3,245.9,138.7,245.6z"/>
</g>
<g>
	<path fill="#8CC7BD" d="M101.4,311.7c1.1-0.9,1.8-2.3,1.8-3.8c0-2.7-2.2-4.9-4.9-4.9c-1.4,0-2.7,0.6-3.6,1.5
		c-0.3-2-2.1-3.6-4.2-3.6c-2.2,0-4.1,1.7-4.2,3.9c-0.1,0-0.1,0-0.2,0c0-0.1,0-0.1,0-0.2c0-2.3-1.9-4.1-4.1-4.1
		c-2.3,0-4.1,1.9-4.1,4.1c0,0.5,0.1,0.9,0.2,1.4c-0.3-0.1-0.7-0.1-1-0.1c-2.1,0-3.7,1.7-3.7,3.7c0,1.6,1,3,2.4,3.5
		c-0.9,0.5-1.5,1.4-1.5,2.5c0,1.2,0.7,2.2,1.7,2.6c-0.9,0.8-1.4,1.9-1.4,3.2c0,2.4,1.9,4.3,4.3,4.3c0.9,0,1.8-0.3,2.5-0.8
		c0,0.2,0,0.3,0,0.5c0,2.8,2.3,5,5,5c2.2,0,4.1-1.4,4.7-3.4c0.8,1,2.1,1.6,3.5,1.6c2.6,0,4.6-2.1,4.6-4.6c0-0.9-0.2-1.7-0.6-2.4
		c0.7,0.3,1.4,0.5,2.2,0.5c2.9,0,5.3-2.4,5.3-5.3C106.2,314.2,104.1,312,101.4,311.7z"/>
</g>
<g>
	<path fill="#8CC7BD" d="M48.1,360.2c1.1-0.9,1.8-2.3,1.8-3.8c0-2.7-2.2-4.9-4.9-4.9c-1.4,0-2.7,0.6-3.6,1.5c-0.3-2-2.1-3.6-4.2-3.6
		c-2.2,0-4.1,1.7-4.2,3.9c-0.1,0-0.1,0-0.2,0c0-0.1,0-0.1,0-0.2c0-2.3-1.9-4.1-4.1-4.1s-4.1,1.9-4.1,4.1c0,0.5,0.1,0.9,0.2,1.4
		c-0.3-0.1-0.7-0.1-1-0.1c-2.1,0-3.7,1.7-3.7,3.7c0,1.6,1,3,2.4,3.5c-0.9,0.5-1.5,1.4-1.5,2.5c0,1.2,0.7,2.2,1.7,2.6
		c-0.9,0.8-1.4,1.9-1.4,3.2c0,2.4,1.9,4.3,4.3,4.3c0.9,0,1.8-0.3,2.5-0.8c0,0.2,0,0.3,0,0.5c0,2.8,2.3,5,5,5c2.2,0,4.1-1.4,4.7-3.4
		c0.8,1,2.1,1.6,3.5,1.6c2.6,0,4.6-2.1,4.6-4.6c0-0.9-0.2-1.7-0.6-2.4c0.7,0.3,1.4,0.5,2.2,0.5c2.9,0,5.3-2.4,5.3-5.3
		C52.8,362.8,50.8,360.5,48.1,360.2z"/>
</g>
<g>
	<path fill="#8CC7BD" d="M45.9,420.1c0.9-0.7,1.5-1.8,1.5-3.1c0-2.2-1.8-4-4-4c-1.1,0-2.2,0.5-2.9,1.3c-0.3-1.7-1.7-2.9-3.4-2.9
		c-1.8,0-3.3,1.4-3.4,3.2c0,0-0.1,0-0.1,0c0-0.1,0-0.1,0-0.2c0-1.9-1.5-3.4-3.4-3.4c-1.9,0-3.4,1.5-3.4,3.4c0,0.4,0.1,0.8,0.2,1.1
		c-0.3-0.1-0.5-0.1-0.8-0.1c-1.7,0-3,1.4-3,3c0,1.3,0.8,2.4,2,2.8c-0.7,0.4-1.2,1.1-1.2,2c0,0.9,0.6,1.8,1.4,2.1
		c-0.7,0.6-1.2,1.6-1.2,2.6c0,1.9,1.6,3.5,3.5,3.5c0.7,0,1.4-0.2,2-0.6c0,0.1,0,0.3,0,0.4c0,2.3,1.8,4.1,4.1,4.1
		c1.8,0,3.3-1.1,3.8-2.7c0.7,0.8,1.7,1.3,2.8,1.3c2.1,0,3.8-1.7,3.8-3.8c0-0.7-0.2-1.3-0.5-1.9c0.6,0.3,1.2,0.4,1.8,0.4
		c2.4,0,4.3-1.9,4.3-4.3C49.7,422.2,48,420.4,45.9,420.1z"/>
</g>
<g>
	<path fill="#8CC7BD" d="M401.7,186.4c1.1-0.9,1.8-2.3,1.8-3.8c0-2.7-2.2-4.9-4.9-4.9c-1.4,0-2.7,0.6-3.6,1.5
		c-0.3-2-2.1-3.6-4.2-3.6c-2.2,0-4.1,1.7-4.2,3.9c-0.1,0-0.1,0-0.2,0c0-0.1,0-0.1,0-0.2c0-2.3-1.9-4.1-4.1-4.1s-4.1,1.9-4.1,4.1
		c0,0.5,0.1,0.9,0.2,1.4c-0.3-0.1-0.7-0.1-1-0.1c-2.1,0-3.7,1.7-3.7,3.7c0,1.6,1,3,2.4,3.5c-0.9,0.5-1.5,1.4-1.5,2.5
		c0,1.2,0.7,2.2,1.7,2.6c-0.9,0.8-1.4,1.9-1.4,3.2c0,2.4,1.9,4.3,4.3,4.3c0.9,0,1.8-0.3,2.5-0.8c0,0.2,0,0.3,0,0.5c0,2.8,2.3,5,5,5
		c2.2,0,4.1-1.4,4.7-3.4c0.8,1,2.1,1.6,3.5,1.6c2.6,0,4.6-2.1,4.6-4.6c0-0.9-0.2-1.7-0.6-2.4c0.7,0.3,1.4,0.5,2.2,0.5
		c2.9,0,5.3-2.4,5.3-5.3C406.4,188.9,404.3,186.7,401.7,186.4z"/>
</g>
<g>
	<path fill="#8CC7BD" d="M401,54.9c1.1-0.9,1.8-2.3,1.8-3.8c0-2.7-2.2-4.9-4.9-4.9c-1.4,0-2.7,0.6-3.6,1.5c-0.3-2-2.1-3.6-4.2-3.6
		c-2.2,0-4.1,1.7-4.2,3.9c-0.1,0-0.1,0-0.2,0c0-0.1,0-0.1,0-0.2c0-2.3-1.9-4.1-4.1-4.1s-4.1,1.9-4.1,4.1c0,0.5,0.1,0.9,0.2,1.4
		c-0.3-0.1-0.7-0.1-1-0.1c-2.1,0-3.7,1.7-3.7,3.7c0,1.6,1,3,2.4,3.5c-0.9,0.5-1.5,1.4-1.5,2.5c0,1.2,0.7,2.2,1.7,2.6
		c-0.9,0.8-1.4,1.9-1.4,3.2c0,2.4,1.9,4.3,4.3,4.3c0.9,0,1.8-0.3,2.5-0.8c0,0.2,0,0.3,0,0.5c0,2.8,2.3,5,5,5c2.2,0,4.1-1.4,4.7-3.4
		c0.8,1,2.1,1.6,3.5,1.6c2.6,0,4.6-2.1,4.6-4.6c0-0.9-0.2-1.7-0.6-2.4c0.7,0.3,1.4,0.5,2.2,0.5c2.9,0,5.3-2.4,5.3-5.3
		C405.8,57.4,403.7,55.1,401,54.9z"/>
</g>
<g>
	<path fill="#8CC7BD" d="M315.9,60.7c1.4,0,2.8-0.6,3.8-1.8c1.7-2.1,1.3-5.2-0.8-6.9c-1.1-0.9-2.5-1.2-3.7-1c1-1.8,0.6-4.1-1-5.4
		c-1.7-1.4-4.2-1.2-5.8,0.4c0,0-0.1-0.1-0.1-0.1c0,0,0.1-0.1,0.1-0.1c1.4-1.8,1.1-4.4-0.6-5.8c-1.8-1.4-4.4-1.1-5.8,0.6
		c-0.3,0.4-0.5,0.8-0.7,1.2c-0.2-0.3-0.4-0.5-0.7-0.7c-1.6-1.3-4-1-5.3,0.6c-1,1.3-1.1,2.9-0.3,4.2c-1-0.2-2.1,0.2-2.7,1
		c-0.7,0.9-0.8,2.1-0.3,3.1c-1.2,0.1-2.3,0.6-3.1,1.6c-1.5,1.9-1.2,4.6,0.7,6.1c0.7,0.6,1.6,0.9,2.4,0.9c-0.1,0.1-0.2,0.2-0.3,0.4
		c-1.7,2.2-1.4,5.3,0.8,7.1c1.7,1.4,4.1,1.4,5.8,0.3c0.1,1.3,0.6,2.6,1.7,3.4c2,1.6,4.9,1.3,6.5-0.7c0.5-0.7,0.9-1.4,1-2.2
		c0.3,0.7,0.8,1.3,1.4,1.8c2.3,1.8,5.6,1.5,7.4-0.8C318,65.6,317.8,62.6,315.9,60.7z"/>
</g>
<g>
	<path fill="#8CC7BD" d="M295.7,152.5c1.1-0.9,1.8-2.3,1.8-3.8c0-2.7-2.2-4.9-4.9-4.9c-1.4,0-2.7,0.6-3.6,1.5
		c-0.3-2-2.1-3.6-4.2-3.6c-2.2,0-4.1,1.7-4.2,3.9c-0.1,0-0.1,0-0.2,0c0-0.1,0-0.1,0-0.2c0-2.3-1.9-4.1-4.1-4.1s-4.1,1.9-4.1,4.1
		c0,0.5,0.1,0.9,0.2,1.4c-0.3-0.1-0.7-0.1-1-0.1c-2.1,0-3.7,1.7-3.7,3.7c0,1.6,1,3,2.4,3.5c-0.9,0.5-1.5,1.4-1.5,2.5
		c0,1.2,0.7,2.2,1.7,2.6c-0.9,0.8-1.4,1.9-1.4,3.2c0,2.4,1.9,4.3,4.3,4.3c0.9,0,1.8-0.3,2.5-0.8c0,0.2,0,0.3,0,0.5c0,2.8,2.3,5,5,5
		c2.2,0,4.1-1.4,4.7-3.4c0.8,1,2.1,1.6,3.5,1.6c2.6,0,4.6-2.1,4.6-4.6c0-0.9-0.2-1.7-0.6-2.4c0.7,0.3,1.4,0.5,2.2,0.5
		c2.9,0,5.3-2.4,5.3-5.3C300.5,155,298.4,152.7,295.7,152.5z"/>
</g>
<g>
	<path fill="#8CC7BD" d="M422.6,394.9c1.1-0.9,1.7-2.2,1.7-3.6c0-2.6-2.1-4.7-4.7-4.7c-1.3,0-2.6,0.6-3.4,1.5c-0.3-2-2-3.5-4-3.5
		c-2.1,0-3.9,1.6-4.1,3.7c-0.1,0-0.1,0-0.2,0c0-0.1,0-0.1,0-0.2c0-2.2-1.8-4-4-4c-2.2,0-4,1.8-4,4c0,0.5,0.1,0.9,0.2,1.3
		c-0.3-0.1-0.6-0.1-1-0.1c-2,0-3.6,1.6-3.6,3.6c0,1.5,1,2.8,2.3,3.4c-0.9,0.5-1.4,1.4-1.4,2.4c0,1.1,0.7,2.1,1.6,2.5
		c-0.8,0.8-1.4,1.9-1.4,3.1c0,2.3,1.9,4.2,4.2,4.2c0.9,0,1.7-0.3,2.4-0.7c0,0.2,0,0.3,0,0.5c0,2.7,2.2,4.8,4.8,4.8
		c2.1,0,3.9-1.4,4.6-3.2c0.8,0.9,2,1.5,3.3,1.5c2.5,0,4.4-2,4.4-4.4c0-0.8-0.2-1.6-0.6-2.3c0.7,0.3,1.4,0.5,2.1,0.5
		c2.8,0,5.1-2.3,5.1-5.1C427.2,397.3,425.2,395.2,422.6,394.9z"/>
</g>
<g>
	<path fill="#8CC7BD" d="M119,493.9c0.8-0.7,1.4-1.7,1.4-2.8c0-2-1.6-3.7-3.7-3.7c-1.1,0-2,0.4-2.7,1.2c-0.2-1.5-1.6-2.7-3.2-2.7
		c-1.7,0-3,1.3-3.2,2.9c0,0-0.1,0-0.1,0c0,0,0-0.1,0-0.1c0-1.7-1.4-3.1-3.1-3.1c-1.7,0-3.1,1.4-3.1,3.1c0,0.4,0.1,0.7,0.2,1
		c-0.2-0.1-0.5-0.1-0.7-0.1c-1.5,0-2.8,1.3-2.8,2.8c0,1.2,0.8,2.2,1.8,2.6c-0.7,0.4-1.1,1.1-1.1,1.9c0,0.9,0.5,1.6,1.3,1.9
		c-0.7,0.6-1.1,1.5-1.1,2.4c0,1.8,1.5,3.2,3.2,3.2c0.7,0,1.3-0.2,1.9-0.6c0,0.1,0,0.2,0,0.4c0,2.1,1.7,3.8,3.8,3.8
		c1.6,0,3-1.1,3.6-2.5c0.6,0.7,1.6,1.2,2.6,1.2c1.9,0,3.5-1.6,3.5-3.5c0-0.6-0.2-1.2-0.5-1.8c0.5,0.2,1.1,0.4,1.7,0.4
		c2.2,0,4-1.8,4-4C122.5,495.8,121,494.1,119,493.9z"/>
</g>
<g>
	<path fill="#8CC7BD" d="M197.7,482.2c0.8-0.7,1.4-1.7,1.4-2.8c0-2-1.6-3.7-3.7-3.7c-1.1,0-2,0.4-2.7,1.2c-0.2-1.5-1.6-2.7-3.2-2.7
		c-1.7,0-3,1.3-3.2,2.9c0,0-0.1,0-0.1,0c0,0,0-0.1,0-0.1c0-1.7-1.4-3.1-3.1-3.1c-1.7,0-3.1,1.4-3.1,3.1c0,0.4,0.1,0.7,0.2,1
		c-0.2-0.1-0.5-0.1-0.7-0.1c-1.5,0-2.8,1.3-2.8,2.8c0,1.2,0.8,2.2,1.8,2.6c-0.7,0.4-1.1,1.1-1.1,1.9c0,0.9,0.5,1.6,1.3,1.9
		c-0.7,0.6-1.1,1.5-1.1,2.4c0,1.8,1.5,3.2,3.2,3.2c0.7,0,1.3-0.2,1.9-0.6c0,0.1,0,0.2,0,0.4c0,2.1,1.7,3.8,3.8,3.8
		c1.6,0,3-1.1,3.6-2.5c0.6,0.7,1.6,1.2,2.6,1.2c1.9,0,3.5-1.6,3.5-3.5c0-0.6-0.2-1.2-0.5-1.8c0.5,0.2,1.1,0.4,1.7,0.4
		c2.2,0,4-1.8,4-4C201.2,484.1,199.7,482.4,197.7,482.2z"/>
</g>
<g>
	<path fill="#8CC7BD" d="M234.3,481.6c0.8-0.7,1.4-1.7,1.4-2.8c0-2-1.6-3.7-3.7-3.7c-1.1,0-2,0.4-2.7,1.2c-0.2-1.5-1.6-2.7-3.2-2.7
		c-1.7,0-3,1.3-3.2,2.9c0,0-0.1,0-0.1,0c0,0,0-0.1,0-0.1c0-1.7-1.4-3.1-3.1-3.1s-3.1,1.4-3.1,3.1c0,0.4,0.1,0.7,0.2,1
		c-0.2-0.1-0.5-0.1-0.7-0.1c-1.5,0-2.8,1.3-2.8,2.8c0,1.2,0.8,2.2,1.8,2.6c-0.7,0.4-1.1,1.1-1.1,1.9c0,0.9,0.5,1.6,1.3,1.9
		c-0.7,0.6-1.1,1.5-1.1,2.4c0,1.8,1.5,3.2,3.2,3.2c0.7,0,1.3-0.2,1.9-0.6c0,0.1,0,0.2,0,0.4c0,2.1,1.7,3.8,3.8,3.8
		c1.6,0,3-1.1,3.6-2.5c0.6,0.7,1.6,1.2,2.6,1.2c1.9,0,3.5-1.6,3.5-3.5c0-0.6-0.2-1.2-0.5-1.8c0.5,0.2,1.1,0.4,1.7,0.4
		c2.2,0,4-1.8,4-4C237.8,483.5,236.3,481.8,234.3,481.6z"/>
</g>
<g>
	<path fill="#8CC7BD" d="M262.5,466.4c0.8-0.7,1.4-1.7,1.4-2.8c0-2-1.6-3.7-3.7-3.7c-1.1,0-2,0.4-2.7,1.2c-0.2-1.5-1.6-2.7-3.2-2.7
		c-1.7,0-3,1.3-3.2,2.9c0,0-0.1,0-0.1,0c0,0,0-0.1,0-0.1c0-1.7-1.4-3.1-3.1-3.1s-3.1,1.4-3.1,3.1c0,0.4,0.1,0.7,0.2,1
		c-0.2-0.1-0.5-0.1-0.7-0.1c-1.5,0-2.8,1.3-2.8,2.8c0,1.2,0.8,2.2,1.8,2.6c-0.7,0.4-1.1,1.1-1.1,1.9c0,0.9,0.5,1.6,1.3,1.9
		c-0.7,0.6-1.1,1.5-1.1,2.4c0,1.8,1.5,3.2,3.2,3.2c0.7,0,1.3-0.2,1.9-0.6c0,0.1,0,0.2,0,0.4c0,2.1,1.7,3.8,3.8,3.8
		c1.6,0,3-1.1,3.6-2.5c0.6,0.7,1.6,1.2,2.6,1.2c1.9,0,3.5-1.6,3.5-3.5c0-0.6-0.2-1.2-0.5-1.8c0.5,0.2,1.1,0.4,1.7,0.4
		c2.2,0,4-1.8,4-4C266,468.2,264.5,466.6,262.5,466.4z"/>
</g>
<g>
	<path fill="#8CC7BD" d="M322.4,409.3c0.8-0.7,1.4-1.7,1.4-2.8c0-2-1.6-3.7-3.7-3.7c-1.1,0-2,0.4-2.7,1.2c-0.2-1.5-1.6-2.7-3.2-2.7
		c-1.7,0-3,1.3-3.2,2.9c0,0-0.1,0-0.1,0c0,0,0-0.1,0-0.1c0-1.7-1.4-3.1-3.1-3.1s-3.1,1.4-3.1,3.1c0,0.4,0.1,0.7,0.2,1
		c-0.2-0.1-0.5-0.1-0.7-0.1c-1.5,0-2.8,1.3-2.8,2.8c0,1.2,0.8,2.2,1.8,2.6c-0.7,0.4-1.1,1.1-1.1,1.9c0,0.9,0.5,1.6,1.3,1.9
		c-0.7,0.6-1.1,1.5-1.1,2.4c0,1.8,1.5,3.2,3.2,3.2c0.7,0,1.3-0.2,1.9-0.6c0,0.1,0,0.2,0,0.4c0,2.1,1.7,3.8,3.8,3.8
		c1.6,0,3-1.1,3.6-2.5c0.6,0.7,1.6,1.2,2.6,1.2c1.9,0,3.5-1.6,3.5-3.5c0-0.6-0.2-1.2-0.5-1.8c0.5,0.2,1.1,0.4,1.7,0.4
		c2.2,0,4-1.8,4-4C326,411.2,324.4,409.5,322.4,409.3z"/>
</g>
<g>
	<path fill="#8CC7BD" d="M370.4,363c0.8-0.7,1.4-1.7,1.4-2.8c0-2-1.6-3.7-3.7-3.7c-1.1,0-2,0.4-2.7,1.2c-0.2-1.5-1.6-2.7-3.2-2.7
		c-1.7,0-3,1.3-3.2,2.9c0,0-0.1,0-0.1,0c0,0,0-0.1,0-0.1c0-1.7-1.4-3.1-3.1-3.1c-1.7,0-3.1,1.4-3.1,3.1c0,0.4,0.1,0.7,0.2,1
		c-0.2-0.1-0.5-0.1-0.7-0.1c-1.5,0-2.8,1.3-2.8,2.8c0,1.2,0.8,2.2,1.8,2.6c-0.7,0.4-1.1,1.1-1.1,1.9c0,0.9,0.5,1.6,1.3,1.9
		c-0.7,0.6-1.1,1.5-1.1,2.4c0,1.8,1.5,3.2,3.2,3.2c0.7,0,1.3-0.2,1.9-0.6c0,0.1,0,0.2,0,0.4c0,2.1,1.7,3.8,3.8,3.8
		c1.6,0,3-1.1,3.6-2.5c0.6,0.7,1.6,1.2,2.6,1.2c1.9,0,3.5-1.6,3.5-3.5c0-0.6-0.2-1.2-0.5-1.8c0.5,0.2,1.1,0.4,1.7,0.4
		c2.2,0,4-1.8,4-4C373.9,364.9,372.4,363.2,370.4,363z"/>
</g>
<g>
	<path fill="#8CC7BD" d="M358.4,325.8c0.8-0.7,1.4-1.7,1.4-2.8c0-2-1.6-3.7-3.7-3.7c-1.1,0-2,0.4-2.7,1.2c-0.2-1.5-1.6-2.7-3.2-2.7
		c-1.7,0-3,1.3-3.2,2.9c0,0-0.1,0-0.1,0c0,0,0-0.1,0-0.1c0-1.7-1.4-3.1-3.1-3.1c-1.7,0-3.1,1.4-3.1,3.1c0,0.4,0.1,0.7,0.2,1
		c-0.2-0.1-0.5-0.1-0.7-0.1c-1.5,0-2.8,1.3-2.8,2.8c0,1.2,0.8,2.2,1.8,2.6c-0.7,0.4-1.1,1.1-1.1,1.9c0,0.9,0.5,1.6,1.3,1.9
		c-0.7,0.6-1.1,1.5-1.1,2.4c0,1.8,1.5,3.2,3.2,3.2c0.7,0,1.3-0.2,1.9-0.6c0,0.1,0,0.2,0,0.4c0,2.1,1.7,3.8,3.8,3.8
		c1.6,0,3-1.1,3.6-2.5c0.6,0.7,1.6,1.2,2.6,1.2c1.9,0,3.5-1.6,3.5-3.5c0-0.6-0.2-1.2-0.5-1.8c0.5,0.2,1.1,0.4,1.7,0.4
		c2.2,0,4-1.8,4-4C361.9,327.6,360.4,326,358.4,325.8z"/>
</g>
<g>
	<path fill="#8CC7BD" d="M404.2,268.4c0.8-0.7,1.4-1.7,1.4-2.8c0-2-1.6-3.7-3.7-3.7c-1.1,0-2,0.4-2.7,1.2c-0.2-1.5-1.6-2.7-3.2-2.7
		c-1.7,0-3,1.3-3.2,2.9c0,0-0.1,0-0.1,0c0,0,0-0.1,0-0.1c0-1.7-1.4-3.1-3.1-3.1c-1.7,0-3.1,1.4-3.1,3.1c0,0.4,0.1,0.7,0.2,1
		c-0.2-0.1-0.5-0.1-0.7-0.1c-1.5,0-2.8,1.3-2.8,2.8c0,1.2,0.8,2.2,1.8,2.6c-0.7,0.4-1.1,1.1-1.1,1.9c0,0.9,0.5,1.6,1.3,1.9
		c-0.7,0.6-1.1,1.5-1.1,2.4c0,1.8,1.5,3.2,3.2,3.2c0.7,0,1.3-0.2,1.9-0.6c0,0.1,0,0.2,0,0.4c0,2.1,1.7,3.8,3.8,3.8
		c1.6,0,3-1.1,3.6-2.5c0.6,0.7,1.6,1.2,2.6,1.2c1.9,0,3.5-1.6,3.5-3.5c0-0.6-0.2-1.2-0.5-1.8c0.5,0.2,1.1,0.4,1.7,0.4
		c2.2,0,4-1.8,4-4C407.7,270.3,406.2,268.6,404.2,268.4z"/>
</g>
<g>
	<path fill="#8CC7BD" d="M340.6,209.5c0.8-0.7,1.4-1.7,1.4-2.8c0-2-1.6-3.7-3.7-3.7c-1.1,0-2,0.4-2.7,1.2c-0.2-1.5-1.6-2.7-3.2-2.7
		c-1.7,0-3,1.3-3.2,2.9c0,0-0.1,0-0.1,0c0,0,0-0.1,0-0.1c0-1.7-1.4-3.1-3.1-3.1c-1.7,0-3.1,1.4-3.1,3.1c0,0.4,0.1,0.7,0.2,1
		c-0.2-0.1-0.5-0.1-0.7-0.1c-1.5,0-2.8,1.3-2.8,2.8c0,1.2,0.8,2.2,1.8,2.6c-0.7,0.4-1.1,1.1-1.1,1.9c0,0.9,0.5,1.6,1.3,1.9
		c-0.7,0.6-1.1,1.5-1.1,2.4c0,1.8,1.5,3.2,3.2,3.2c0.7,0,1.3-0.2,1.9-0.6c0,0.1,0,0.2,0,0.4c0,2.1,1.7,3.8,3.8,3.8
		c1.6,0,3-1.1,3.6-2.5c0.6,0.7,1.6,1.2,2.6,1.2c1.9,0,3.5-1.6,3.5-3.5c0-0.6-0.2-1.2-0.5-1.8c0.5,0.2,1.1,0.4,1.7,0.4
		c2.2,0,4-1.8,4-4C344.1,211.4,342.6,209.7,340.6,209.5z"/>
</g>
<g>
	<path fill="#8CC7BD" d="M430,158.3c0.8-0.7,1.4-1.7,1.4-2.8c0-2-1.6-3.7-3.7-3.7c-1.1,0-2,0.4-2.7,1.2c-0.2-1.5-1.6-2.7-3.2-2.7
		c-1.7,0-3,1.3-3.2,2.9c0,0-0.1,0-0.1,0c0,0,0-0.1,0-0.1c0-1.7-1.4-3.1-3.1-3.1c-1.7,0-3.1,1.4-3.1,3.1c0,0.4,0.1,0.7,0.2,1
		c-0.2-0.1-0.5-0.1-0.7-0.1c-1.5,0-2.8,1.3-2.8,2.8c0,1.2,0.8,2.2,1.8,2.6c-0.7,0.4-1.1,1.1-1.1,1.9c0,0.9,0.5,1.6,1.3,1.9
		c-0.7,0.6-1.1,1.5-1.1,2.4c0,1.8,1.5,3.2,3.2,3.2c0.7,0,1.3-0.2,1.9-0.6c0,0.1,0,0.2,0,0.4c0,2.1,1.7,3.8,3.8,3.8
		c1.6,0,3-1.1,3.6-2.5c0.6,0.7,1.6,1.2,2.6,1.2c1.9,0,3.5-1.6,3.5-3.5c0-0.6-0.2-1.2-0.5-1.8c0.5,0.2,1.1,0.4,1.7,0.4
		c2.2,0,4-1.8,4-4C433.5,160.2,432,158.5,430,158.3z"/>
</g>
<g>
	<path fill="#8CC7BD" d="M334.7,176c0.8-0.7,1.4-1.7,1.4-2.8c0-2-1.6-3.7-3.7-3.7c-1.1,0-2,0.4-2.7,1.2c-0.2-1.5-1.6-2.7-3.2-2.7
		c-1.7,0-3,1.3-3.2,2.9c0,0-0.1,0-0.1,0c0,0,0-0.1,0-0.1c0-1.7-1.4-3.1-3.1-3.1c-1.7,0-3.1,1.4-3.1,3.1c0,0.4,0.1,0.7,0.2,1
		c-0.2-0.1-0.5-0.1-0.7-0.1c-1.5,0-2.8,1.3-2.8,2.8c0,1.2,0.8,2.2,1.8,2.6c-0.7,0.4-1.1,1.1-1.1,1.9c0,0.9,0.5,1.6,1.3,1.9
		c-0.7,0.6-1.1,1.5-1.1,2.4c0,1.8,1.5,3.2,3.2,3.2c0.7,0,1.3-0.2,1.9-0.6c0,0.1,0,0.2,0,0.4c0,2.1,1.7,3.8,3.8,3.8
		c1.6,0,3-1.1,3.6-2.5c0.6,0.7,1.6,1.2,2.6,1.2c1.9,0,3.5-1.6,3.5-3.5c0-0.6-0.2-1.2-0.5-1.8c0.5,0.2,1.1,0.4,1.7,0.4
		c2.2,0,4-1.8,4-4C338.3,177.9,336.7,176.2,334.7,176z"/>
</g>
<g>
	<path fill="#8CC7BD" d="M210.7,213.3c0.8-0.7,1.4-1.7,1.4-2.8c0-2-1.6-3.7-3.7-3.7c-1.1,0-2,0.4-2.7,1.2c-0.2-1.5-1.6-2.7-3.2-2.7
		c-1.7,0-3,1.3-3.2,2.9c0,0-0.1,0-0.1,0c0,0,0-0.1,0-0.1c0-1.7-1.4-3.1-3.1-3.1c-1.7,0-3.1,1.4-3.1,3.1c0,0.4,0.1,0.7,0.2,1
		c-0.2-0.1-0.5-0.1-0.7-0.1c-1.5,0-2.8,1.3-2.8,2.8c0,1.2,0.8,2.2,1.8,2.6c-0.7,0.4-1.1,1.1-1.1,1.9c0,0.9,0.5,1.6,1.3,1.9
		c-0.7,0.6-1.1,1.5-1.1,2.4c0,1.8,1.5,3.2,3.2,3.2c0.7,0,1.3-0.2,1.9-0.6c0,0.1,0,0.2,0,0.4c0,2.1,1.7,3.8,3.8,3.8
		c1.6,0,3-1.1,3.6-2.5c0.6,0.7,1.6,1.2,2.6,1.2c1.9,0,3.5-1.6,3.5-3.5c0-0.6-0.2-1.2-0.5-1.8c0.5,0.2,1.1,0.4,1.7,0.4
		c2.2,0,4-1.8,4-4C214.2,215.2,212.6,213.5,210.7,213.3z"/>
</g>
<g>
	<path fill="#8CC7BD" d="M162.4,233.7c0.8-0.7,1.4-1.7,1.4-2.8c0-2-1.6-3.7-3.7-3.7c-1.1,0-2,0.4-2.7,1.2c-0.2-1.5-1.6-2.7-3.2-2.7
		c-1.7,0-3,1.3-3.2,2.9c0,0-0.1,0-0.1,0c0,0,0-0.1,0-0.1c0-1.7-1.4-3.1-3.1-3.1c-1.7,0-3.1,1.4-3.1,3.1c0,0.4,0.1,0.7,0.2,1
		c-0.2-0.1-0.5-0.1-0.7-0.1c-1.5,0-2.8,1.3-2.8,2.8c0,1.2,0.8,2.2,1.8,2.6c-0.7,0.4-1.1,1.1-1.1,1.9c0,0.9,0.5,1.6,1.3,1.9
		c-0.7,0.6-1.1,1.5-1.1,2.4c0,1.8,1.5,3.2,3.2,3.2c0.7,0,1.3-0.2,1.9-0.6c0,0.1,0,0.2,0,0.4c0,2.1,1.7,3.8,3.8,3.8
		c1.6,0,3-1.1,3.6-2.5c0.6,0.7,1.6,1.2,2.6,1.2c1.9,0,3.5-1.6,3.5-3.5c0-0.6-0.2-1.2-0.5-1.8c0.5,0.2,1.1,0.4,1.7,0.4
		c2.2,0,4-1.8,4-4C165.9,235.6,164.4,233.9,162.4,233.7z"/>
</g>
<g>
	<path fill="#8CC7BD" d="M294.3,106.1c0.8-0.7,1.4-1.7,1.4-2.8c0-2-1.6-3.7-3.7-3.7c-1.1,0-2,0.4-2.7,1.2c-0.2-1.5-1.6-2.7-3.2-2.7
		c-1.7,0-3,1.3-3.2,2.9c0,0-0.1,0-0.1,0c0,0,0-0.1,0-0.1c0-1.7-1.4-3.1-3.1-3.1c-1.7,0-3.1,1.4-3.1,3.1c0,0.4,0.1,0.7,0.2,1
		c-0.2-0.1-0.5-0.1-0.7-0.1c-1.5,0-2.8,1.3-2.8,2.8c0,1.2,0.8,2.2,1.8,2.6c-0.7,0.4-1.1,1.1-1.1,1.9c0,0.9,0.5,1.6,1.3,1.9
		c-0.7,0.6-1.1,1.5-1.1,2.4c0,1.8,1.5,3.2,3.2,3.2c0.7,0,1.3-0.2,1.9-0.6c0,0.1,0,0.2,0,0.4c0,2.1,1.7,3.8,3.8,3.8
		c1.6,0,3-1.1,3.6-2.5c0.6,0.7,1.6,1.2,2.6,1.2c1.9,0,3.5-1.6,3.5-3.5c0-0.6-0.2-1.2-0.5-1.8c0.5,0.2,1.1,0.4,1.7,0.4
		c2.2,0,4-1.8,4-4C297.8,108,296.3,106.3,294.3,106.1z"/>
</g>
<g>
	<path fill="#8CC7BD" d="M291.3,79.5c0.8-0.7,1.4-1.7,1.4-2.8c0-2-1.6-3.7-3.7-3.7c-1.1,0-2,0.4-2.7,1.2c-0.2-1.5-1.6-2.7-3.2-2.7
		c-1.7,0-3,1.3-3.2,2.9c0,0-0.1,0-0.1,0c0,0,0-0.1,0-0.1c0-1.7-1.4-3.1-3.1-3.1c-1.7,0-3.1,1.4-3.1,3.1c0,0.4,0.1,0.7,0.2,1
		c-0.2-0.1-0.5-0.1-0.7-0.1c-1.5,0-2.8,1.3-2.8,2.8c0,1.2,0.8,2.2,1.8,2.6c-0.7,0.4-1.1,1.1-1.1,1.9c0,0.9,0.5,1.6,1.3,1.9
		c-0.7,0.6-1.1,1.5-1.1,2.4c0,1.8,1.5,3.2,3.2,3.2c0.7,0,1.3-0.2,1.9-0.6c0,0.1,0,0.2,0,0.4c0,2.1,1.7,3.8,3.8,3.8
		c1.6,0,3-1.1,3.6-2.5c0.6,0.7,1.6,1.2,2.6,1.2c1.9,0,3.5-1.6,3.5-3.5c0-0.6-0.2-1.2-0.5-1.8c0.5,0.2,1.1,0.4,1.7,0.4
		c2.2,0,4-1.8,4-4C294.8,81.4,293.2,79.7,291.3,79.5z"/>
</g>
<g>
	<path fill="#8CC7BD" d="M331.8,341c0.8-0.7,1.4-1.7,1.4-2.8c0-2-1.6-3.7-3.7-3.7c-1.1,0-2,0.4-2.7,1.2c-0.2-1.5-1.6-2.7-3.2-2.7
		c-1.7,0-3,1.3-3.2,2.9c0,0-0.1,0-0.1,0c0,0,0-0.1,0-0.1c0-1.7-1.4-3.1-3.1-3.1c-1.7,0-3.1,1.4-3.1,3.1c0,0.4,0.1,0.7,0.2,1
		c-0.2-0.1-0.5-0.1-0.7-0.1c-1.5,0-2.8,1.3-2.8,2.8c0,1.2,0.8,2.2,1.8,2.6c-0.7,0.4-1.1,1.1-1.1,1.9c0,0.9,0.5,1.6,1.3,1.9
		c-0.7,0.6-1.1,1.5-1.1,2.4c0,1.8,1.5,3.2,3.2,3.2c0.7,0,1.3-0.2,1.9-0.6c0,0.1,0,0.2,0,0.4c0,2.1,1.7,3.8,3.8,3.8
		c1.6,0,3-1.1,3.6-2.5c0.6,0.7,1.6,1.2,2.6,1.2c1.9,0,3.5-1.6,3.5-3.5c0-0.6-0.2-1.2-0.5-1.8c0.5,0.2,1.1,0.4,1.7,0.4
		c2.2,0,4-1.8,4-4C335.4,342.9,333.8,341.2,331.8,341z"/>
</g>
<g>
	<path fill="#8CC7BD" d="M256,322.3c0.8-0.7,1.4-1.7,1.4-2.8c0-2-1.6-3.7-3.7-3.7c-1.1,0-2,0.4-2.7,1.2c-0.2-1.5-1.6-2.7-3.2-2.7
		c-1.7,0-3,1.3-3.2,2.9c0,0-0.1,0-0.1,0c0,0,0-0.1,0-0.1c0-1.7-1.4-3.1-3.1-3.1c-1.7,0-3.1,1.4-3.1,3.1c0,0.4,0.1,0.7,0.2,1
		c-0.2-0.1-0.5-0.1-0.7-0.1c-1.5,0-2.8,1.3-2.8,2.8c0,1.2,0.8,2.2,1.8,2.6c-0.7,0.4-1.1,1.1-1.1,1.9c0,0.9,0.5,1.6,1.3,1.9
		c-0.7,0.6-1.1,1.5-1.1,2.4c0,1.8,1.5,3.2,3.2,3.2c0.7,0,1.3-0.2,1.9-0.6c0,0.1,0,0.2,0,0.4c0,2.1,1.7,3.8,3.8,3.8
		c1.6,0,3-1.1,3.6-2.5c0.6,0.7,1.6,1.2,2.6,1.2c1.9,0,3.5-1.6,3.5-3.5c0-0.6-0.2-1.2-0.5-1.8c0.5,0.2,1.1,0.4,1.7,0.4
		c2.2,0,4-1.8,4-4C259.6,324.2,258,322.5,256,322.3z"/>
</g>
<g>
	<path fill="#8CC7BD" d="M296.4,349.3c0.7-0.5,1.1-1.3,1.1-2.2c0-1.6-1.3-2.9-2.9-2.9c-0.8,0-1.6,0.4-2.1,0.9
		c-0.2-1.2-1.2-2.1-2.5-2.1c-1.3,0-2.4,1-2.5,2.3c0,0-0.1,0-0.1,0c0,0,0-0.1,0-0.1c0-1.3-1.1-2.4-2.4-2.4s-2.4,1.1-2.4,2.4
		c0,0.3,0.1,0.6,0.1,0.8c-0.2-0.1-0.4-0.1-0.6-0.1c-1.2,0-2.2,1-2.2,2.2c0,0.9,0.6,1.8,1.4,2.1c-0.5,0.3-0.9,0.8-0.9,1.5
		c0,0.7,0.4,1.3,1,1.5c-0.5,0.5-0.8,1.1-0.8,1.9c0,1.4,1.1,2.6,2.6,2.6c0.5,0,1-0.2,1.5-0.5c0,0.1,0,0.2,0,0.3c0,1.6,1.3,3,3,3
		c1.3,0,2.4-0.8,2.8-2c0.5,0.6,1.2,0.9,2.1,0.9c1.5,0,2.7-1.2,2.7-2.7c0-0.5-0.1-1-0.4-1.4c0.4,0.2,0.8,0.3,1.3,0.3
		c1.7,0,3.1-1.4,3.1-3.1C299.2,350.8,298,349.4,296.4,349.3z"/>
</g>
<g>
	<path fill="#8CC7BD" d="M320.3,304.9c0.7-0.5,1.1-1.3,1.1-2.2c0-1.6-1.3-2.9-2.9-2.9c-0.8,0-1.6,0.4-2.1,0.9
		c-0.2-1.2-1.2-2.1-2.5-2.1c-1.3,0-2.4,1-2.5,2.3c0,0-0.1,0-0.1,0c0,0,0-0.1,0-0.1c0-1.3-1.1-2.4-2.4-2.4s-2.4,1.1-2.4,2.4
		c0,0.3,0.1,0.6,0.1,0.8c-0.2-0.1-0.4-0.1-0.6-0.1c-1.2,0-2.2,1-2.2,2.2c0,0.9,0.6,1.8,1.4,2.1c-0.5,0.3-0.9,0.8-0.9,1.5
		c0,0.7,0.4,1.3,1,1.5c-0.5,0.5-0.8,1.1-0.8,1.9c0,1.4,1.1,2.6,2.6,2.6c0.5,0,1-0.2,1.5-0.5c0,0.1,0,0.2,0,0.3c0,1.6,1.3,3,3,3
		c1.3,0,2.4-0.8,2.8-2c0.5,0.6,1.2,0.9,2.1,0.9c1.5,0,2.7-1.2,2.7-2.7c0-0.5-0.1-1-0.4-1.4c0.4,0.2,0.8,0.3,1.3,0.3
		c1.7,0,3.1-1.4,3.1-3.1C323.1,306.4,321.8,305.1,320.3,304.9z"/>
</g>
<g>
	<path fill="#8CC7BD" d="M253.6,343c0.7-0.5,1.1-1.3,1.1-2.2c0-1.6-1.3-2.9-2.9-2.9c-0.8,0-1.6,0.4-2.1,0.9
		c-0.2-1.2-1.2-2.1-2.5-2.1c-1.3,0-2.4,1-2.5,2.3c0,0-0.1,0-0.1,0c0,0,0-0.1,0-0.1c0-1.3-1.1-2.4-2.4-2.4c-1.3,0-2.4,1.1-2.4,2.4
		c0,0.3,0.1,0.6,0.1,0.8c-0.2-0.1-0.4-0.1-0.6-0.1c-1.2,0-2.2,1-2.2,2.2c0,0.9,0.6,1.8,1.4,2.1c-0.5,0.3-0.9,0.8-0.9,1.5
		c0,0.7,0.4,1.3,1,1.5c-0.5,0.5-0.8,1.1-0.8,1.9c0,1.4,1.1,2.6,2.6,2.6c0.5,0,1-0.2,1.5-0.5c0,0.1,0,0.2,0,0.3c0,1.6,1.3,3,3,3
		c1.3,0,2.4-0.8,2.8-2c0.5,0.6,1.2,0.9,2.1,0.9c1.5,0,2.7-1.2,2.7-2.7c0-0.5-0.1-1-0.4-1.4c0.4,0.2,0.8,0.3,1.3,0.3
		c1.7,0,3.1-1.4,3.1-3.1C256.4,344.5,255.2,343.2,253.6,343z"/>
</g>
<g>
	<path fill="#8CC7BD" d="M265.6,308c0.7-0.5,1.1-1.3,1.1-2.2c0-1.6-1.3-2.9-2.9-2.9c-0.8,0-1.6,0.4-2.1,0.9
		c-0.2-1.2-1.2-2.1-2.5-2.1c-1.3,0-2.4,1-2.5,2.3c0,0-0.1,0-0.1,0c0,0,0-0.1,0-0.1c0-1.3-1.1-2.4-2.4-2.4s-2.4,1.1-2.4,2.4
		c0,0.3,0.1,0.6,0.1,0.8c-0.2-0.1-0.4-0.1-0.6-0.1c-1.2,0-2.2,1-2.2,2.2c0,0.9,0.6,1.8,1.4,2.1c-0.5,0.3-0.9,0.8-0.9,1.5
		c0,0.7,0.4,1.3,1,1.5c-0.5,0.5-0.8,1.1-0.8,1.9c0,1.4,1.1,2.6,2.6,2.6c0.5,0,1-0.2,1.5-0.5c0,0.1,0,0.2,0,0.3c0,1.6,1.3,3,3,3
		c1.3,0,2.4-0.8,2.8-2c0.5,0.6,1.2,0.9,2.1,0.9c1.5,0,2.7-1.2,2.7-2.7c0-0.5-0.1-1-0.4-1.4c0.4,0.2,0.8,0.3,1.3,0.3
		c1.7,0,3.1-1.4,3.1-3.1C268.4,309.5,267.2,308.2,265.6,308z"/>
</g>
<g>
	<circle cx="120.7" cy="313.7" r="0.5"/>
	<circle cx="119.4" cy="315.7" r="0.5"/>
	<circle cx="118.8" cy="318" r="0.5"/>
	<circle cx="119" cy="320.4" r="0.5"/>
	<circle cx="120" cy="322.6" r="0.5"/>
	<circle cx="121.7" cy="324.2" r="0.5"/>
	<circle cx="126.3" cy="325.4" r="0.5"/>
	<circle cx="128.6" cy="324.8" r="0.5"/>
	<circle cx="130.6" cy="323.4" r="0.5"/>
	<circle cx="132" cy="321.4" r="0.5"/>
	<path d="M133,318.8c-0.2-0.2-0.5-0.3-0.8-0.1c-0.2,0.2-0.3,0.5-0.1,0.8c0.2,0.2,0.5,0.3,0.8,0.1S133.2,319,133,318.8z"/>
	<path d="M132.1,317.2c0.3,0.1,0.6,0.1,0.7-0.2c0.1-0.3,0.1-0.6-0.2-0.7c-0.3-0.1-0.6-0.1-0.7,0.2
		C131.7,316.7,131.8,317,132.1,317.2z"/>
	<circle cx="131.3" cy="314.6" r="0.5"/>
	<circle cx="129.6" cy="312.9" r="0.5"/>
	<path d="M127.7,312.3c0.3-0.1,0.3-0.5,0.2-0.7c-0.1-0.3-0.5-0.3-0.7-0.2c-0.3,0.1-0.3,0.5-0.2,0.7
		C127.1,312.4,127.4,312.5,127.7,312.3z"/>
	<circle cx="125" cy="311.7" r="0.5"/>
	<path d="M122.5,312.8c0.3,0.1,0.6,0,0.7-0.3c0.1-0.3,0-0.6-0.3-0.7c-0.3-0.1-0.6,0-0.7,0.3C122.1,312.4,122.2,312.7,122.5,312.8z"
		/>
	<path d="M124.1,319.4l-3.8,1.9c0,0.1,0.1,0.1,0.1,0.2L124.1,319.4C124.1,319.4,124.1,319.4,124.1,319.4z"/>
	<path d="M123.9,318.2l-4.2-0.8c0,0.1,0,0.1,0,0.2L123.9,318.2C123.9,318.2,123.9,318.2,123.9,318.2z"/>
	<path d="M124.4,319.8l-3,3.1c0,0,0.1,0.1,0.1,0.1L124.4,319.8C124.4,319.9,124.4,319.9,124.4,319.8z"/>
	<path d="M123.9,318.8l-4.2,0.6c0,0.1,0,0.1,0,0.2L123.9,318.8C123.9,318.8,123.9,318.8,123.9,318.8z"/>
	<path d="M125.6,316.8l-0.2-4.3c-0.1,0-0.1,0-0.2,0L125.6,316.8C125.5,316.8,125.5,316.8,125.6,316.8z"/>
	<path d="M123.1,324c0.1,0,0.1,0.1,0.2,0.1l1.7-3.9c0,0,0,0,0,0L123.1,324z"/>
	<path d="M123.2,313l1.7,3.9c0,0,0,0,0.1,0l-1.6-4C123.3,312.9,123.3,313,123.2,313z"/>
	<path d="M127.4,319.2l4,1.5c0-0.1,0-0.1,0.1-0.2L127.4,319.2C127.4,319.2,127.4,319.2,127.4,319.2z"/>
	<path d="M126.7,317.1l2.4-3.5c0,0-0.1-0.1-0.2-0.1L126.7,317.1C126.7,317,126.7,317.1,126.7,317.1z"/>
	<path d="M127.1,317.5l3.4-2.5c0,0-0.1-0.1-0.1-0.1L127.1,317.5C127.1,317.5,127.1,317.5,127.1,317.5z"/>
	<path d="M127.3,312.7c-0.1,0-0.1,0-0.2,0l-1,4.1c0,0,0,0,0.1,0L127.3,312.7z"/>
	<path d="M127.4,318l4.1-1.3c0-0.1,0-0.1-0.1-0.2L127.4,318C127.4,318,127.4,318,127.4,318z"/>
	<path d="M124.5,317.2l-2.8-3.2c0,0-0.1,0.1-0.1,0.1L124.5,317.2C124.5,317.2,124.5,317.2,124.5,317.2z"/>
	<path d="M127.5,318.6C127.5,318.6,127.5,318.6,127.5,318.6l4.3,0.2c0-0.1,0-0.1,0-0.2v0L127.5,318.6L127.5,318.6z"/>
	<path d="M127.1,319.7l3.3,2.7c0,0,0.1-0.1,0.1-0.1L127.1,319.7C127.1,319.7,127.1,319.7,127.1,319.7z"/>
	<path d="M126.6,320.1l2.2,3.6c0.1,0,0.1-0.1,0.2-0.1L126.6,320.1C126.6,320.1,126.6,320.1,126.6,320.1z"/>
	<path d="M124.1,317.7l-3.7-2.1c0,0.1-0.1,0.1-0.1,0.2L124.1,317.7C124.1,317.7,124.1,317.7,124.1,317.7z"/>
	<path d="M127.3,324.7c2.7-0.7,4.7-3.2,4.7-6.1c0-3.5-2.9-6.4-6.4-6.4c-3.5,0-6.4,2.9-6.4,6.4c0,2.9,2,5.4,4.7,6.1l0,0
		c-0.1,0-0.2,0-0.4,0.1c-0.3,0.1-0.3,0.5-0.2,0.7c0.1,0.1,0.2,0.2,0.3,0.2l-0.3,1.1h-0.9v0.9h6.2v-0.9h-0.9L127.3,324.7z
		 M119.5,318.6c0-3.4,2.8-6.1,6.1-6.1c3.4,0,6.1,2.8,6.1,6.1c0,2.8-1.9,5.2-4.5,5.9l-1.4-5.6c0.1-0.1,0.2-0.2,0.2-0.3
		c0-0.2-0.2-0.4-0.4-0.4c-0.2,0-0.4,0.2-0.4,0.4c0,0.1,0.1,0.3,0.2,0.3l-1.4,5.6C121.5,323.8,119.5,321.4,119.5,318.6z M125.2,324.6
		l0.3-4.3c0,0,0,0,0,0l0.2-0.7l1.3,4.9c-0.4,0.1-0.8,0.1-1.3,0.1c-0.4,0-0.8,0-1.2-0.1l1-4l-0.5,4.1
		C125.1,324.6,125.1,324.6,125.2,324.6z M124.1,325.7C124.1,325.7,124.2,325.7,124.1,325.7c0.3-0.2,0.4-0.5,0.3-0.8c0,0,0,0-0.1-0.1
		l0-0.1c0.4,0.1,0.9,0.1,1.3,0.1c0.5,0,0.9,0,1.3-0.1l0.5,2.1h-3.7L124.1,325.7z"/>
</g>
<g>
	<circle opacity="0.7" fill="#DEEFDE" cx="63.6" cy="394.6" r="15.6"/>
	<text transform="matrix(1 0 0 1 59.3678 392.9708)"><tspan x="0" y="0" font-family="'OpenSans-Extrabold'" font-size="5">VIP</tspan><tspan x="-6.9" y="6" font-family="'OpenSans-Extrabold'" font-size="5">OMRÅDE</tspan></text>
</g>
<g>
	<circle opacity="0.7" fill="#DEEFDE" cx="130.3" cy="390" r="10.3"/>
	<text transform="matrix(1 0 0 1 112.055 390)"><tspan x="0" y="0" font-family="'OpenSans-Extrabold'" font-size="5">VIN &amp;</tspan><tspan x="-9.1" y="6" font-family="'OpenSans-Extrabold'" font-size="5">CHAMPAGNE</tspan></text>
</g>
<g>
	<circle opacity="0.7" fill="#DEEFDE" cx="404.8" cy="333.5" r="15.4"/>
	<text transform="matrix(1 0 0 1 392.6981 331.894)"><tspan x="0" y="0" font-family="'OpenSans-Extrabold'" font-size="5">FRIVILLIG</tspan><tspan x="1.5" y="6" font-family="'OpenSans-Extrabold'" font-size="5">LOUNGE</tspan></text>
</g>
<g>
	<circle opacity="0.7" fill="#DEEFDE" cx="367.8" cy="287.8" r="12.1"/>
	<text transform="matrix(1 0 0 1 356.8984 289.1857)" font-family="'OpenSans-Extrabold'" font-size="5">Q-TOWN</text>
</g>
<text transform="matrix(1 0 0 1 230.7567 323.3599)" font-family="'MyriadPro-Regular'" font-size="12">  </text>
<circle fill="#8CC7BD" cx="382.9" cy="101.9" r="16.3"/>
<image overflow="visible" width="932" height="993" xlink:href="magicbocLogo.png"  transform="matrix(2.932698e-02 0 0 2.932698e-02 369.2232 87.2916)">
</image>
<g opacity="0.7">
	<g>
		<path fill="none" stroke="#8CC7BD" stroke-width="3" stroke-miterlimit="10" d="M287.8,296.9c0,0,0.3,0.5,0.7,1.3"/>
		<path fill="none" stroke="#8CC7BD" stroke-width="3" stroke-miterlimit="10" stroke-dasharray="3.0607,3.0607" d="M289.8,301.1
			c3.9,9.2,10.9,31-7.4,38c-21.5,8.2-21.8,10.1-26.2,19.8"/>
		<path fill="none" stroke="#8CC7BD" stroke-width="3" stroke-miterlimit="10" d="M255.5,360.2c-0.2,0.4-0.4,0.9-0.6,1.4"/>
	</g>
</g>
<g opacity="0.7">
	<g>
		<line fill="none" stroke="#000000" stroke-width="0.5" stroke-miterlimit="10" x1="331.6" y1="156.6" x2="336.3" y2="167.4"/>
		<g>
			<path d="M337,169c-0.6-0.6-1.4-1.3-2.2-1.7l1.4-0.1l1-1C337,167,337,168.1,337,169z"/>
		</g>
	</g>
</g>
<g opacity="0.7">
	<g>
		<line fill="none" stroke="#000000" stroke-width="0.5" stroke-miterlimit="10" x1="354.1" y1="160.3" x2="348.9" y2="149.7"/>
		<g>
			<path d="M348.2,148.2c0.6,0.6,1.5,1.3,2.2,1.6l-1.4,0.2l-1,1C348.3,150.1,348.3,149,348.2,148.2z"/>
		</g>
	</g>
</g>
</svg>
