<?xml version="1.0" encoding="utf-8"?>
<!-- Generator: Adobe Illustrator 18.0.0, SVG Export Plug-In . SVG Version: 6.00 Build 0)  -->
<!DOCTYPE svg PUBLIC "-//W3C//DTD SVG 1.1//EN" "http://www.w3.org/Graphics/SVG/1.1/DTD/svg11.dtd">
<svg version="1.1" id="Layer_1" xmlns="http://www.w3.org/2000/svg" xmlns:xlink="http://www.w3.org/1999/xlink" x="0px" y="0px"
	 viewBox="0 552.9 99.4 99.2" enable-background="new 0 552.9 99.4 99.2" xml:space="preserve">
<g>
	<circle fill="#FFFFFF" cx="49.7" cy="602.5" r="49.7"/>
	<g>
		<path fill="#043540" d="M90.6,600.9c0-0.1,0-0.1,0-0.2c0,0,0,0,0-0.1c0-0.1,0-0.1-0.1-0.2c0,0,0,0,0,0c0-0.1-0.1-0.1-0.1-0.2
			c0,0,0,0,0-0.1c0,0-0.1-0.1-0.1-0.1c0,0,0,0-0.1-0.1c0,0-0.1-0.1-0.1-0.1c0,0-0.1,0-0.1-0.1c0,0,0,0,0,0L50.5,577v-1.7h9.3
			l-5.1-4.9l5.1-4.9h-9.3c0-0.8-0.4-0.9-0.8-0.9c-0.5,0-0.8,0.3-0.8,0.8V577L9.5,599.8c0,0,0,0,0,0c0,0-0.1,0-0.1,0.1
			c0,0-0.1,0.1-0.1,0.1c0,0,0,0-0.1,0.1c0,0-0.1,0.1-0.1,0.1c0,0,0,0,0,0.1c0,0.1-0.1,0.1-0.1,0.2c0,0,0,0,0,0
			c0,0.1-0.1,0.1-0.1,0.2c0,0,0,0,0,0.1c0,0.1,0,0.1,0,0.2c0,0,0,0,0,0v26.4c0,0.7,0.5,1.1,1.2,1.1h26.4c0.7,0,1.8-0.4,1.8-1.1
			v-18.1l11.4-6.9l11.4,6.9v18.1c0,0.7,1.1,1.1,1.8,1.1h26.4c0.7,0,1.2-0.4,1.2-1.1V600.9C90.6,600.9,90.6,600.9,90.6,600.9z
			 M35,602.3V626H11.3v-23.7 M38.3,602.3H45l-6.7,4V602.3z M54.4,602.3h6.7v4L54.4,602.3z M88.2,626H64.4v-23.7h23.7V626z"/>
		<rect x="10.8" y="601.5" fill="#043540" width="24.9" height="25.4"/>
		<rect x="63.6" y="601.5" fill="#043540" width="24.9" height="25.4"/>
	</g>
</g>
</svg>
